<?xml version="1.0" encoding="UTF-8"?>
<svg id="Layer_2" data-name="Layer 2" xmlns="http://www.w3.org/2000/svg" viewBox="0 0 538.18 161.46">
  <defs>
    <style>
      .cls-1 {
        fill: #ff5350;
      }

      .cls-1, .cls-2, .cls-3, .cls-4 {
        stroke-width: 0px;
      }

      .cls-2 {
        fill: #45d1f4;
      }

      .cls-3 {
        fill: #294f52;
      }

      .cls-4 {
        fill: #808083;
      }
    </style>
  </defs>
  <g id="Layer_1-2" data-name="Layer 1">
    <g>
      <path class="cls-2" d="m505.45,100h-22.77c0-24.53-19.96-44.49-44.5-44.49v-22.78c17.2,0,32.88,6.46,44.77,17.08v20.19h15.44c4.51,9.04,7.06,19.22,7.06,30Z"/>
      <polygon class="cls-4" points="491.54 0 482.96 0 438.18 0 438.18 21.94 482.96 21.94 482.96 70 505.46 70 505.46 0 491.54 0"/>
      <polygon class="cls-1" points="515.68 100 515.68 0 538.18 21.94 538.18 100 515.68 100"/>
      <path class="cls-3" d="m482.96,49.81v20.19h15.44c-3.84-7.68-9.09-14.53-15.44-20.19Z"/>
    </g>
    <g>
      <path class="cls-3" d="m0,152.32l3.83-7.65c4.44,4.32,10.86,7.9,19.62,7.9,8.27,0,15.05-3.83,15.05-9.26,0-6.29-7.28-8.02-14.56-9.87-11.11-2.84-21.22-5.92-21.22-17.4,0-10.86,11.35-17.15,21.47-17.15,8.27,0,14.31,2.22,20.48,6.42l-3.7,7.65c-5.06-3.45-10.37-5.18-16.66-5.18s-11.97,3.46-11.97,8.15c0,5.92,6.66,7.28,13.7,8.76,10.86,2.47,22.09,6.54,22.09,18.39,0,12.71-12.96,18.39-24.68,18.39s-19.99-5.55-23.45-9.13Z"/>
      <path class="cls-3" d="m55.53,130.24c0-17.65,11.72-31.34,28.38-31.34,9.63,0,18.14,3.95,22.58,11.72v-10.49h9.38v60.1h-9.38v-10.49c-4.44,7.9-12.96,11.72-22.58,11.72-16.66,0-28.38-13.82-28.38-31.22Zm50.96,0c0-12.59-9.01-22.21-20.48-22.21s-20.85,9.38-20.85,22.21,8.89,22.09,20.85,22.09,20.48-9.5,20.48-22.09Z"/>
      <path class="cls-3" d="m128.59,100.13h9.38v12.71c3.46-7.9,11.23-13.94,23.2-13.94v10.24c-14.07,0-23.2,7.9-23.2,22.58v28.51h-9.38v-60.1Z"/>
      <path class="cls-3" d="m167.09,100.13h9.5l17.03,38.38c2.47,5.55,4.32,11.97,4.32,11.97,0,0,1.85-6.42,4.32-11.97l16.91-38.38h9.5l-26.41,60.47h-8.64l-26.53-60.47Z"/>
      <rect class="cls-3" x="243.09" y="81.86" width="35.7" height="7.16"/>
      <path class="cls-3" d="m281.61,100.13v10.49c-4.44-7.77-12.96-11.72-22.58-11.72-16.66,0-28.38,13.7-28.38,31.34s11.72,31.22,28.38,31.22c9.63,0,18.14-3.83,22.58-11.72v10.49h9.38v-60.1h-9.38Zm-20.48,52.2c-11.97,0-20.85-9.38-20.85-22.09s8.89-22.21,20.85-22.21,20.48,9.63,20.48,22.21-9.01,22.09-20.48,22.09Z"/>
      <path class="cls-3" d="m303.7,100.13h9.38v12.71c3.45-7.9,11.23-13.94,23.2-13.94v10.24c-14.07,0-23.2,7.9-23.2,22.58v28.51h-9.38v-60.1Z"/>
      <path class="cls-3" d="m352.19,142.2v-34.3h-9.01v-7.77h9.01v-12.96l9.38-1.73v14.69h20.48v7.77h-20.48v34.55c0,8.27,3.58,10.61,8.39,10.61,5.55,0,9.87-3.33,9.87-3.33l3.09,7.28c-2.34,1.6-7.28,4.44-13.82,4.44-10.61,0-16.91-5.18-16.91-19.25Z"/>
      <path class="cls-3" d="m390.94,79.02h9.38v31.34c4.2-7.28,11.85-11.48,20.73-11.48,14.81,0,21.84,8.76,21.84,24.93v36.4h-9.5v-35.17c0-11.11-4.32-17.03-15.18-17.03s-17.89,8.76-17.89,18.26v33.94h-9.38v-81.2Z"/>
    </g>
  </g>
</svg>